<svg width="96" height="96" xmlns="http://www.w3.org/2000/svg"><path d="M36.868 14.444a2.688 2.688 0 10-4.611-2.762L16.917 37.25h-9.23A2.688 2.688 0 005 39.938v5.375a2.688 2.688 0 002.688 2.688h3.348l9.912 34.7a4.031 4.031 0 003.886 2.925h46.343a4.031 4.031 0 003.88-2.924L84.965 48h3.349A2.688 2.688 0 0091 45.313v-5.375a2.688 2.688 0 00-2.688-2.687h-9.228L63.749 11.68a2.688 2.688 0 10-4.612 2.763l13.68 22.807H23.183l13.69-22.807zM26.5 58.751a5.375 5.375 0 0110.75 0V69.5a5.375 5.375 0 11-10.75 0zm16.125 0a5.375 5.375 0 0110.75 0V69.5a5.375 5.375 0 11-10.75 0zm21.5-5.375A5.375 5.375 0 0169.5 58.75V69.5a5.375 5.375 0 11-10.75 0V58.75a5.375 5.375 0 015.375-5.375z" fill="#fabd2f"/></svg>